<svg width="21" height="22" viewBox="0 0 21 22" fill="none" xmlns="http://www.w3.org/2000/svg">
<g clip-path="url(#clip0_225_179)">
<path d="M8.74993 11.9167C9.1257 12.4429 9.60512 12.8784 10.1557 13.1935C10.7062 13.5086 11.315 13.696 11.9407 13.743C12.5665 13.7899 13.1946 13.6953 13.7824 13.4656C14.3701 13.2359 14.9039 12.8765 15.3474 12.4117L17.9724 9.66166C18.7694 8.79723 19.2103 7.63947 19.2004 6.43773C19.1904 5.236 18.7303 4.08644 17.9191 3.23665C17.108 2.38687 16.0107 1.90484 14.8636 1.8944C13.7164 1.88396 12.6113 2.34593 11.7862 3.18082L10.2812 4.74832M12.2499 10.0833C11.8742 9.55704 11.3947 9.12157 10.8442 8.80646C10.2937 8.49135 9.68486 8.30396 9.05911 8.25702C8.43336 8.21007 7.80529 8.30465 7.2175 8.53436C6.62971 8.76406 6.09596 9.12351 5.65243 9.58832L3.02743 12.3383C2.23049 13.2027 1.78951 14.3605 1.79948 15.5622C1.80945 16.764 2.26956 17.9135 3.08072 18.7633C3.89188 19.6131 4.98919 20.0951 6.1363 20.1056C7.28341 20.116 8.38855 19.654 9.21368 18.8192L10.7099 17.2517" stroke="#767676" stroke-width="2.5" stroke-linecap="round" stroke-linejoin="round"/>
</g>
<defs>
<clipPath id="clip0_225_179">
<rect width="21" height="22" fill="white"/>
</clipPath>
</defs>
</svg>
