<svg width="29" height="21" viewBox="0 0 29 21" fill="none" xmlns="http://www.w3.org/2000/svg">
<path d="M8.75 18.375C7.7875 18.375 6.96354 18.0323 6.27813 17.3469C5.59271 16.6615 5.25 15.8375 5.25 14.875C5.25 13.9125 5.59271 13.0885 6.27813 12.4031C6.96354 11.7177 7.7875 11.375 8.75 11.375C9.08542 11.375 9.39167 11.4188 9.66875 11.5063C9.96042 11.5792 10.2375 11.6958 10.5 11.8563V2.625H15.75V6.125H12.25V14.875C12.25 15.8375 11.9073 16.6615 11.2219 17.3469C10.5365 18.0323 9.7125 18.375 8.75 18.375Z" fill="#767676"/>
<path d="M22.0001 9.91669V18.0834M22.0001 18.0834L26.0834 14M22.0001 18.0834L17.9167 14" stroke="#767676" stroke-width="1.6" stroke-linecap="round" stroke-linejoin="round"/>
</svg>
